{"title":"Pro.Wrestlers.Vs.Zombies.2014.DVDRip.XviD-BULiMiA","uid":10747259,"size":738402147,"categoryP":"video","categoryS":"movies","magnet":"?xt=urn:btih:7ebc0085be4fbfad1d1ad60bb3bb571208bde635&amp;dn=Pro.Wrestlers.Vs.Zombies.2014.DVDRip.XviD-BULiMiA&amp;tr=udp%3A%2F%2Ftracker.openbittorrent.com%3A80&amp;tr=udp%3A%2F%2Fopen.demonii.com%3A1337&amp;tr=udp%3A%2F%2Ftracker.coppersurfer.tk%3A6969&amp;tr=udp%3A%2F%2Fexodus.desync.com%3A6969","seeders":6,"leechers":0,"uploader":"xxxlavalxxx","files":-1,"time":1407834806,"description":"[IMG]http://i.imgur.com/CYzbTrZ.jpg[/IMG]\n\n &lt;a href=&quot;\nhttp://www.imdb.com/title/tt2240046/&quot; rel=&quot;nofollow&quot; target=&quot;_NEW&quot;&gt;\nhttp://www.imdb.com/title/tt2240046/&lt;/a&gt;\n\n\nThe Franchise Shane Douglas accidentally kills a wrestler in the ring. The wrestler's brother Angus seeks revenge by surrendering his soul to an ancient demon to gain the power to raise the undead. Angus then pays for a private show at an empty prison to lure Douglas and his friend Rowdy Roddy Piper into a death trap.\n\nDirector: Cody Knotts\nWriter: Cody Knotts\nStars: Roddy Piper, Jim Duggan, Matt Hardy\nGenres: Action | Comedy | Horror | Thriller\nCountry: USA\nLanguage: English\n\n\n\nGeneral\nComplete name                            : Pro.Wrestlers.Vs.Zombies.2014.DVDRip.XviD-BULiMiA/Pro.Wrestlers.Vs.Zombies.2014.DVDRip.XviD-BULiMiA.avi\nFormat                                   : AVI\nFormat/Info                              : Audio Video Interleave\nFile size                                : 704 MiB\nDuration                                 : 1h 31mn\nOverall bit rate                         : 1 081 Kbps\n\nVideo\nID                                       : 0\nFormat                                   : MPEG-4 Visual\nFormat profile                           : Simple@L3\nFormat settings, BVOP                    : No\nFormat settings, QPel                    : No\nFormat settings, GMC                     : No warppoints\nFormat settings, Matrix                  : Default (H.263)\nCodec ID                                 : XVID\nCodec ID/Hint                            : XviD\nDuration                                 : 1h 31mn\nSource duration                          : 1h 31mn\nBit rate                                 : 875 Kbps\nWidth                                    : 640 pixels\nHeight                                   : 368 pixels\nDisplay aspect ratio                     : 16:9\nFrame rate                               : 29.970 fps\nColor space                              : YUV\nChroma subsampling                       : 4:2:0\nBit depth                                : 8 bits\nScan type                                : Progressive\nCompression mode                         : Lossy\nBits/(Pixel*Frame)                       : 0.124\nStream size                              : 570 MiB (81%)\nWriting library                          : XviD 1.1.2 (UTC 2006-11-01)\n\nAudio\nID                                       : 1\nFormat                                   : MPEG Audio\nFormat version                           : Version 1\nFormat profile                           : Layer 3\nMode                                     : Joint stereo\nMode extension                           : MS Stereo\nCodec ID                                 : 55\nCodec ID/Hint                            : MP3\nDuration                                 : 1h 31mn\nBit rate mode                            : Constant\nBit rate                                 : 192 Kbps\nChannel(s)                               : 2 channels\nSampling rate                            : 48.0 KHz\nCompression mode                         : Lossy\nStream size                              : 125 MiB (18%)\nAlignment                                : Split accross interleaves\nInterleave, duration                     : 24 ms (0.72 video frame)\nInterleave, preload duration             : 24 ms\nWriting library                          : LAME3.98\n\n\nscreens\n &lt;a href=&quot;\nhttp://i.imgur.com/TPrW5Py.jpg&quot; rel=&quot;nofollow&quot; target=&quot;_NEW&quot;&gt;\nhttp://i.imgur.com/TPrW5Py.jpg&lt;/a&gt; &lt;a href=&quot;\nhttp://i.imgur.com/dIemluD.jpg&quot; rel=&quot;nofollow&quot; target=&quot;_NEW&quot;&gt;\nhttp://i.imgur.com/dIemluD.jpg&lt;/a&gt; &lt;a href=&quot;\nhttp://i.imgur.com/4rNOzWy.jpg&quot; rel=&quot;nofollow&quot; target=&quot;_NEW&quot;&gt;\nhttp://i.imgur.com/4rNOzWy.jpg&lt;/a&gt; &lt;a href=&quot;\nhttp://i.imgur.com/gVPAXYk.jpg&quot; rel=&quot;nofollow&quot; target=&quot;_NEW&quot;&gt;\nhttp://i.imgur.com/gVPAXYk.jpg&lt;/a&gt; &lt;a href=&quot;\nhttp://i.imgur.com/4dGQhvq.jpg&quot; rel=&quot;nofollow&quot; target=&quot;_NEW&quot;&gt;\nhttp://i.imgur.com/4dGQhvq.jpg&lt;/a&gt;","torrent":{"xt":"urn:btih:7ebc0085be4fbfad1d1ad60bb3bb571208bde635","amp;dn":"Pro.Wrestlers.Vs.Zombies.2014.DVDRip.XviD-BULiMiA","amp;tr":["udp%3A%2F%2Ftracker.openbittorrent.com%3A80","udp%3A%2F%2Fopen.demonii.com%3A1337","udp%3A%2F%2Ftracker.coppersurfer.tk%3A6969","udp%3A%2F%2Fexodus.desync.com%3A6969"],"infoHash":"7ebc0085be4fbfad1d1ad60bb3bb571208bde635","infoHashBuffer":{"type":"Buffer","data":[126,188,0,133,190,79,191,173,29,26,214,11,179,187,87,18,8,189,230,53]},"announce":[],"urlList":[]}}